<svg class="w-28 lg:w-auto" width="136" height="39" viewBox="0 0 136 39" fill="none" xmlns="http://www.w3.org/2000/svg">
<g clip-path="url(#clip0_616_952)">
    <path fill-rule="evenodd" clip-rule="evenodd" d="M31.6737 27.0454C27.0944 26.7617 22.9162 24.3203 20.4945 20.5091L19.9416 19.6383L20.6315 20.1324C22.8967 21.7665 25.5239 22.6569 28.2001 22.8232C31.8009 23.0483 35.4898 21.9524 38.5231 19.5893C38.572 16.7615 37.9996 14.0511 36.9331 11.6L36.8792 11.7125C36.0524 13.3319 34.9272 14.7752 33.5377 15.9983C30.1032 19.0365 25.4212 20.2645 21.018 19.2762L20.0101 19.0512L20.8418 18.9191C27.3096 17.8623 32.2852 12.5295 33.1023 5.86604C31.2187 3.91885 28.9193 2.36795 26.336 1.35032L26.3752 1.46774C26.9378 3.19966 27.1629 5.00987 27.0503 6.85921C26.7617 11.4434 24.3204 15.6216 20.5091 18.0433L19.6383 18.5962L20.1324 17.9063C23.9583 12.5883 23.7088 5.29363 19.5796 0.00979402C16.7518 -0.0391304 14.0511 0.533285 11.6 1.59984L11.7125 1.65365C13.3319 2.48048 14.7752 3.60574 15.9983 4.99519C19.0365 8.42968 20.2645 13.1166 19.2811 17.5247L19.0561 18.5277L18.9191 17.696C17.8623 11.2282 12.5296 6.24765 5.87097 5.43062C3.92378 7.31421 2.37288 9.61365 1.35525 12.2018L1.47267 12.1626C3.2046 11.6 5.0148 11.3749 6.86903 11.4875C11.4435 11.7761 15.6216 14.2174 18.0434 18.0286L18.5962 18.8995L17.9064 18.4054C12.5883 14.5795 5.30345 14.829 0.00983289 18.9582C-0.0390915 21.786 0.538216 24.4867 1.60477 26.9378L1.66348 26.8253C2.48541 25.2059 3.61067 23.7626 5.00012 22.5395C8.43461 19.5062 13.1167 18.2782 17.5248 19.2615L18.5326 19.4817L17.696 19.6187C11.2282 20.6755 6.25258 26.0082 5.43555 32.6668C7.31914 34.614 9.61858 36.1649 12.2018 37.1825L12.1627 37.0651C11.6 35.3332 11.375 33.523 11.4924 31.6737C11.7761 27.0943 14.2175 22.9162 18.0287 20.4944L18.8995 19.9416L18.4054 20.6314C14.5795 25.9495 14.8339 33.2343 18.9582 38.5231C21.7861 38.572 24.4867 37.9996 26.9378 36.933L26.8253 36.8792C25.2059 36.0524 23.7675 34.9271 22.5395 33.5377C19.5062 30.1032 18.2782 25.4211 19.2616 21.013L19.4866 20.0052L19.6187 20.8418C20.6755 27.3096 26.0083 32.2852 32.6669 33.1022C34.6141 31.2187 36.165 28.9192 37.1875 26.336L37.0652 26.3751C35.3332 26.9378 33.523 27.1628 31.6737 27.0454Z" fill="#F71E2E"/>
    <path fill-rule="evenodd" clip-rule="evenodd" d="M60.9157 15.739L57.9362 24.061L54.9176 15.6509L52.0995 8.7868H46.4243L55.1622 29.6971H60.7102L69.3454 8.92868L69.4041 8.7868H63.7289L60.9157 15.739Z" fill="#F71E2E"/>
    <path fill-rule="evenodd" clip-rule="evenodd" d="M72.7946 29.6139H78.0099V8.7428H72.7946V29.6139Z" fill="#F71E2E"/>
    <path fill-rule="evenodd" clip-rule="evenodd" d="M91.9289 16.7615C89.4582 16.6001 88.2596 15.8955 88.2596 14.6088C88.2596 13.371 89.5659 12.6665 91.8408 12.6665C93.9495 12.6665 95.4661 13.2243 96.7724 14.4767L96.8556 14.555L99.7764 11.0471L99.703 10.9835C97.5258 9.03635 95.2215 8.24377 91.7577 8.24377C89.6539 8.24377 87.5746 8.76727 86.0629 9.68704C84.145 10.8466 83.1323 12.6078 83.1323 14.7801C83.1323 19.8584 88.4308 21.0228 91.5913 21.2674C94.4485 21.4338 95.5102 21.9915 95.5102 23.3321C95.5102 23.8311 95.2949 24.3008 94.8986 24.6922C94.243 25.3331 93.1178 25.7147 91.968 25.6902C89.8154 25.6511 86.5325 24.4965 85.0746 22.8477L84.9865 22.745L82.4033 26.5562L82.462 26.6149C85.5345 29.8732 88.8026 30.3234 91.8849 30.3234C94.6197 30.3234 96.8996 29.6139 98.4652 28.2783C99.8938 27.0601 100.681 25.3477 100.681 23.4593C100.681 18.0287 96.0092 17.0257 91.9289 16.7615Z" fill="#F71E2E"/>
    <path fill-rule="evenodd" clip-rule="evenodd" d="M104.904 29.6139H110.114V8.7428H104.904V29.6139Z" fill="#F71E2E"/>
    <path fill-rule="evenodd" clip-rule="evenodd" d="M120.232 16.7174C120.956 14.3006 122.962 12.916 125.75 12.916C128.671 12.916 130.535 14.3055 130.882 16.7174H120.232ZM133.407 11.2037C131.616 9.2369 128.911 8.19971 125.589 8.19971C119.101 8.19971 114.742 12.5687 114.742 19.0756C114.742 25.9103 119.038 30.157 125.956 30.157C129.4 30.157 132.756 28.8654 134.723 26.7861L134.796 26.7127L131.45 23.3516L131.377 23.4299C130.212 24.653 127.761 25.3135 126.039 25.3135C122.776 25.3135 120.525 23.7185 120.134 21.1402H135.892L135.902 21.0473C136.289 16.8251 135.428 13.4199 133.407 11.2037Z" fill="#F71E2E"/>
</g>
<defs>
    <clipPath id="clip0_616_952">
    <rect width="136" height="38.5328" fill="white"/>
    </clipPath>
</defs>
</svg>